<svg width="118" height="28" viewBox="0 0 118 28" fill="none" xmlns="http://www.w3.org/2000/svg">
<g filter="url(#filter0_d_934_1334)">
<g clip-path="url(#clip0_934_1334)">
<path d="M63.5211 19.8211C56.6754 19.9176 49.9426 19.7863 43.2152 19.5711C34.1039 19.2795 24.9941 18.8508 16.006 17.146C13.2129 16.6162 10.4576 15.9294 7.88371 14.6632C7.10849 14.2819 6.36818 13.8477 5.71487 13.2773C3.3768 11.2362 3.42598 8.37223 5.88426 6.45974C8.34294 4.54699 11.2874 3.7636 14.2476 3.10678C19.5824 1.92306 25.0054 1.39824 30.4515 1.02667C42.1371 0.229413 53.8365 0.0894509 65.5402 0.244453C72.8649 0.341457 80.1923 0.516855 87.4986 1.08967C94.0532 1.60355 100.599 2.23822 106.921 4.21629C108.533 4.72069 110.078 5.38589 111.454 6.39013C114.3 8.46749 114.364 11.5735 111.555 13.6874C109.134 15.5096 106.26 16.2589 103.373 16.9057C98.1844 18.0681 92.9077 18.5708 87.6147 18.9727C79.631 19.5789 71.6322 19.6838 63.5211 19.8211ZM48.2168 2.99473C42.61 5.123 42.4528 11.6473 45.0001 14.7163C46.544 16.5763 48.6906 17.3466 50.9345 17.8691C54.6104 18.7249 58.3583 18.7142 62.092 18.5244C64.5886 18.3974 67.0672 18.0099 69.4138 17.0263C72.5508 15.7113 74.193 13.3545 74.1807 9.97601C74.1683 6.58107 72.4462 4.26063 69.3107 2.99874C68.6539 2.7344 67.9773 2.50564 67.2925 2.32688C63.5227 1.34276 59.6722 1.28243 55.8222 1.48576C53.2874 1.61963 50.7567 1.9308 48.2168 2.99473ZM45.6179 17.9499C45.9124 17.9994 46.2052 18.068 46.5017 18.093C46.7941 18.1177 47.0902 18.0984 47.6883 18.0984C44.0067 16.2998 42.2686 13.6807 42.3055 9.83587C42.3424 6.00279 44.2481 3.51496 47.5763 1.88421C43.8703 2.13766 40.2537 2.6039 36.7643 3.78214C35.485 4.21415 34.2652 4.77039 33.1597 5.55742C29.9244 7.86085 29.8545 11.8667 33.0016 14.263C33.8714 14.9254 34.8225 15.4429 35.8344 15.8346C38.92 17.0287 42.1402 17.6233 45.6179 17.9499ZM74.4369 5.86074C75.5093 8.13195 75.5846 10.5002 74.9162 12.8627C74.2228 15.3135 72.4819 16.9312 70.2155 18.0568C72.8029 18.073 75.2626 17.6396 77.704 17.1115C80.1987 16.5719 82.6291 15.8343 84.7065 14.2609C87.7294 11.9713 87.656 7.86768 84.5632 5.69142C83.7029 5.08606 82.7782 4.60492 81.7944 4.23029C78.0636 2.80974 74.1606 2.27182 69.8787 1.87384C71.8757 2.89319 73.43 3.95634 74.4369 5.86074ZM32.8355 2.71954C29.6405 3.115 26.4852 3.69509 23.4434 4.78447C21.9567 5.31693 20.5286 5.97016 19.365 7.07571C17.4424 8.90236 17.5292 11.2988 19.5491 13.0091C20.9804 14.221 22.674 14.8914 24.4271 15.4597C28.7527 16.8619 33.2418 17.3216 37.7452 17.7672C35.7679 17.1769 33.8708 16.4175 32.2256 15.1472C28.483 12.2573 28.61 7.31451 32.4728 4.58909C34.0689 3.46302 35.8656 2.78762 37.6806 2.10944C36.1309 2.30034 34.5811 2.49124 32.8355 2.71954ZM84.0066 16.1547C82.696 16.8624 81.3112 17.3893 79.8859 17.832C80.4504 17.8173 80.9982 17.7381 81.5483 17.6846C85.6383 17.2873 89.6964 16.7098 93.6184 15.4273C95.2936 14.8796 96.9143 14.1866 98.2342 12.97C100.173 11.1828 100.117 8.75611 98.1111 7.03407C97.0486 6.12197 95.8141 5.50629 94.5068 5.02823C89.8743 3.33424 85.0281 2.77703 80.1551 2.32798C81.7509 2.86543 83.3089 3.47831 84.7226 4.39938C86.985 5.87353 88.3132 7.86837 88.0539 10.6747C87.8177 13.2305 86.2605 14.8582 84.0066 16.1547ZM12.3934 15.0835C17.0702 16.4192 21.8863 16.8869 26.7003 17.3806C26.4605 17.2731 26.2094 17.2196 25.9615 17.1537C23.2737 16.4396 20.6208 15.622 18.5081 13.6955C16.1682 11.5619 16.1516 8.46831 18.4361 6.2761C19.6725 5.08966 21.1784 4.33456 22.7753 3.76196C23.9865 3.32769 25.1913 2.86984 26.4561 2.58713C21.8055 3.02733 17.1644 3.48298 12.6478 4.73744C10.624 5.29953 8.61962 5.91456 6.89677 7.17432C4.64836 8.81838 4.62073 10.916 6.8237 12.6233C8.42279 13.8627 10.3071 14.4839 12.3934 15.0835ZM92.5174 17.0256C92.062 17.1479 91.6065 17.2701 91.1511 17.3924C91.8732 17.4159 92.5722 17.3148 93.2745 17.25C97.7429 16.8381 102.171 16.1909 106.467 14.8506C108.181 14.3157 109.87 13.666 111.229 12.4257C112.801 10.9904 112.792 9.17413 111.245 7.7431C110.437 6.99637 109.492 6.4594 108.482 6.05561C103.375 4.01409 97.9913 3.37023 92.4407 2.81249C92.7897 3.20896 93.1358 3.21833 93.438 3.3213C95.2843 3.95046 97.0869 4.67412 98.6455 5.88261C101.428 8.04003 101.609 11.4263 99.0601 13.8311C97.2615 15.5281 94.9943 16.2971 92.5174 17.0256Z" fill="white"/>
<path d="M55.8394 11.4368C55.2671 9.97296 55.4422 8.68838 56.512 7.64567C57.4249 6.75586 58.5433 6.4378 59.8098 6.8635C61.2334 7.34197 62.0463 8.45149 62.0692 9.979C62.0913 11.4595 61.2705 12.6299 59.8566 13.1337C58.5397 13.6029 57.1741 13.2035 56.2505 12.0702C56.1098 11.8976 55.9989 11.7007 55.8394 11.4368Z" fill="white"/>
</g>
</g>
<defs>
<filter id="filter0_d_934_1334" x="-0.193359" y="0" width="118" height="28" filterUnits="userSpaceOnUse" color-interpolation-filters="sRGB">
<feFlood flood-opacity="0" result="BackgroundImageFix"/>
<feColorMatrix in="SourceAlpha" type="matrix" values="0 0 0 0 0 0 0 0 0 0 0 0 0 0 0 0 0 0 127 0" result="hardAlpha"/>
<feOffset dy="4"/>
<feGaussianBlur stdDeviation="2"/>
<feComposite in2="hardAlpha" operator="out"/>
<feColorMatrix type="matrix" values="0 0 0 0 0 0 0 0 0 0 0 0 0 0 0 0 0 0 0.25 0"/>
<feBlend mode="normal" in2="BackgroundImageFix" result="effect1_dropShadow_934_1334"/>
<feBlend mode="normal" in="SourceGraphic" in2="effect1_dropShadow_934_1334" result="shape"/>
</filter>
<clipPath id="clip0_934_1334">
<rect width="110" height="20" fill="white" transform="translate(3.80664)"/>
</clipPath>
</defs>
</svg>
