<?xml version="1.0" encoding="UTF-8"?>
<svg id="Layer_2" data-name="Layer 2" xmlns="http://www.w3.org/2000/svg" viewBox="0 0 6369.42 1796.04">
  <defs>
    <style>
      .cls-1 {
        fill: #ffed00;
      }

      .cls-1, .cls-2 {
        fill-rule: evenodd;
      }

      .cls-3, .cls-2 {
        fill: #124d7c;
      }
    </style>
  </defs>
  <g id="Layer_1-2" data-name="Layer 1">
    <path class="cls-3" d="M5328.07,127.79c-90.35-22.53-187.47-23.28-283.84,2.16h-.01c-152.56,40.28-274.33,138.55-347.89,264.87-73.64,126.46-99.04,280.99-58.75,433.61h0c40.28,152.57,138.55,274.34,264.87,347.9,126.46,73.64,280.99,99.04,433.61,58.75,99.63-26.3,186.11-77.31,254.58-144.7,57.92-57,103-125.75,132.32-201.21l-648.97-189.13,460.95-473.47c-61.31-46.27-131.72-80.04-206.88-98.78M5247.91,204.42c40.45,0,73.23,32.79,73.23,73.23s-32.79,73.23-73.23,73.23-73.23-32.79-73.23-73.23,32.79-73.23,73.23-73.23ZM5023.61,20.8c112.46-28.34,225.57-26.92,330.93-.64,111.69,27.86,214.77,83.74,299.2,161.79l41.73,38.57-413.57,424.8,580.1,169.06-14.88,52.74c-32.25,114.36-94,218.8-178.8,302.25-81.86,80.56-185.14,141.52-304.06,172.91-182.15,48.09-366.53,17.8-517.37-70.03-150.98-87.91-268.42-233.4-316.52-415.61l-1.95-7.4v-.19c-45.28-179.68-14.63-361.03,71.99-509.78,87.91-150.98,233.4-268.42,415.6-316.52l7.4-1.95h.19Z"/>
    <path class="cls-2" d="M1668.98,1436.35c13.09-1,31.23-1.48,44.07,1.1l12.7,270.72c.87,28.04,2.57,60.33,5.87,87.86l39.73-1.24c2.51-7.9-4.93-81.57-4.57-98.22,3.32-2.29,23.03-8.45,29.07-10.81,9.75-3.8,18.3-7.51,27.13-11.81,171.87-83.5,115.87-247.11-72.14-272.82-.31-4.72-.83-9.12-1.05-13.97-.47-9.99.43-7-36.45-6.8-1.73,5.37-.7,11.63-.45,17.08l-42.39,1.11c.15,13.64-1.14,25-1.51,37.79M2775.85,1385.04l-40.66.67c-2.44,10.41,2.21,21.99-3.76,29.91-4.6,6.1-9.18,13.41-13.72,19.97l-74.97,110.2c-1.86,2.76-4.11,7.13-7.01,8.74l-15.71-18.98c-5.4-6.55-9.87-12.16-15.7-19.02-2.69-3.17-5.43-6.62-8.14-9.77-12.51-14.57-11.92-10.85-12.11-21.63-.17-9.44,1.34-15.09-3.28-16.45l-38.14,1.19c-1.04,4.96,2.52,73.17,2.64,86.77.25,28.97,2.46,58.37,3.37,87.68l37.42.19c.43-28.82,1.34-56.72.73-85.38,5.25,3.04,42.13,57.03,49.66,65.78,5.55-4.12,42.39-58.72,49.28-68.75l47.59-69.58-1.89,191.86,40.89,1.59,1.19-96.02,2.32-198.96ZM1033.42,1632.6l14.29-.25c-1.88,21.28-1.97,39.9-.47,61.32l36.96-2.31c-.69-12.09.36-49.45,4.96-58.33,25.73-1.09,91.46,1.13,118.49,2.93,2.26,13.1-1.32,53.49.07,58.79l41.18.37.71-56.35c8.95.36,18.86,2,27.35.52,1.79-4.82,1.56-33.22.99-40.44l-30.34-1.83-9-59.38c-3.73-18.7-8.58-35.92-14.78-52.52-26.81-71.79-56.86-87.64-103.87-28.12-30.53,38.66-52.93,87.34-65.96,137.13l-21.69,1.87,1.12,36.59ZM1097.46,1592.39c6.52-30.84,45.01-108.5,70.6-126.32l2.56,2.78c18.4,26.22,33.31,95.53,34.52,125.14-36.76-.84-71.26-2.47-107.68-1.61ZM2101.69,1469.87c2.1,23.14,4.86,45.87,6.89,68.96,4.07,46.39,7.68,92.77,11.27,139.03l41.26-3.06-5.51-74.23,91.53,3.64,8.96,73.12,36.99,1.37-4.64-73.55,17.82-.37-1.01-35.53c-1.13-10.89-14.44-1.73-19.62-6.4-4.64-7.2-8.31-116.26-10.21-135.43l-40.89,1.98c-1.35,24.73,6.94,101.88,8.65,132.51-11.72.59-84.43,1.81-90.99-.12-2.08-27.9-5.11-56.11-8.16-83.9-2.93-26.76-8.27-53.86-11.08-80.53l-37.01,2.3c.58,21.9,3.74,47.99,5.76,70.23ZM3335.75,1495.81c6.56-5.14,13.58-9.92,20.63-14.95,8.93-6.38,55.28-40.18,57.97-46.49l-28.18-27.67c-11.58,6.15-83.2,65.05-88.61,68.09.16-23.99,1.22-63.13.32-85.37l-41.07.47-1.36,154.12c-.48,34.77.5,63.17,1.56,98.39,5.47.94,14.56.12,20.5.07,13.64-.11,15.91,1.78,16.34-3.72,1.01-12.92.59-28.26,1.23-41.7l1.85-61.46c.26-16.71-.05-10.59,4.42-15.73,4.94,1.46,43.79,28.35,51.21,33.3,11.39,7.58,146.68,93.46,154.73,95.63,3.7-10.16,18.8-24.74,21.76-34.33l-193.29-118.65ZM3048.11,1611.12c4.44-2.35,12.93-9.97,17.69-13.68l52.34-42.37c11.51-10.3,22.29-19.53,33.66-29.47l33.09-29.54c.24,49.68-1.07,102.38-1.89,152.36,6.66.68,36.05.97,41.43-.56l.87-225.33c-5.29-1.74-29.79.26-36.89.8-2.24,20.1.55,12.85-11.93,23.87l-27.35,25.22c-3.5,3.16-5.18,4.11-8.94,7.91-5.19,5.25-12.97,10.81-18.5,16.24l-46.97,41.38c-7.1,5.7-17.48,16.57-27.64,24.32-.16-13.61.85-110.09-.65-114.33l-36.1-.9c-2.18,32.4-4.5,63.97-4.51,96.96-.04,17.27-.34,86.09,1.76,95.25l40.48.12.03-28.26ZM2354.96,1498.03c-27.37,40.34-23.12,101.83,14.15,130.6,17.29,13.35,37.11,23.83,66.72,24.14,49.71.52,93.64-32.97,97.73-82.51,5.65-68.45-58.02-108.24-125.81-75.36-14.63,7.1-20.26,15.9-25.66,18.47l-27.13-15.34ZM2381.13,1537.01c35.49,10.75,20.67,12.19,36.28,1.21,52.73-37.11,93.33,7.87,67.97,49.05-12.57,20.4-45.98,31.94-76.27,18.17-31.65-14.38-37.98-55.19-27.97-68.43ZM2841.69,1534.58c1.39-22.49,4.27-45.11,6.19-67.73l6.52-67.19-36.59-.68c-5.31,26.02-10.18,56.96-12.83,83.9-2.75,27.9-7.23,60.67-7.62,88.57,14.92.22,130.75,4.03,135.57,6.42,1.95,1.54,1.36,3.3,1.31,9.26-.03,3.52.01,7.03.04,10.55.1,14.25-.35,51.45.78,60.93l40.64-.85c.81-15.99-.03-170.11-2.29-192.55l-37.4-.62-1.99,70.68-92.32-.7ZM1563.58,1477.07c-18.84.12-37.93-.86-56.72-1.24-7.48-.15-21.76-1.08-28.52-.26-6.13.74-4.78,3.63-4.98,9.47-1.12,31.66-4.07,31.26,9.23,31.61l83.22,2.01c.74,28.05,4.23,57.27,6.05,85.41l4.64,86.82c10.08-3.11,28.64-1.04,40.41-3.14.84-11.99-.79-30.25-1.47-42.74-.76-14.1-1.48-28.06-2.28-42.06-1.62-28.21-4.31-55.39-6.97-83.31,21.35.18,53,3.1,73.27.87.02-11.52.74-28.93-.5-40.6l-77.68-1.94-1.36-16.81-36.73,1.8.39,14.09ZM930.21,1488.28c.24-7.42,2.16-18.87.49-25.72l-40.55-2.56-1.27,27.32-20.77-.48c-.07,7.83-1.12,30.54.51,36.83l18.17,1.76c-2.38,52.67-5.4,130.55,1.08,182.03,5.64,1.36,29.34-1.77,37.08-2.25.38-57.15-1.83-120.48,3.33-177.16l109.11,12.57,6.01-40.07c-30.81-6.24-80.58-11.7-113.2-12.26ZM1462.62,1518.83c-6.26-10.78-23.36-22.73-39.14-28.26-48.27-16.93-115.64,7.53-122.25,68.99-6.37,59.21,46.3,98.12,105.7,95,16.27-.85,41.76-7.43,52.36-14.57-1.41-6.45-4.47-14.28-6.62-20.8-1.91-5.8-3.29-15.31-7.08-19.23-16.08,10.97-41.83,16.97-65.07,11.38-19.81-4.77-37.28-19.73-38.14-42.04-1.57-40.44,50.46-49.42,74.62-39.6,5.06,2.05,9.28,4.81,12.46,7.54,3.24,2.78,7.57,7.46,11.28,8.87l21.87-27.27ZM1980.5,1505.53c-21.42,14.38-45.7,67.5-28.99,104.05,15.65,34.25,57.06,46.75,96.18,22.92,24.47-14.9,53.47-55.07,39.92-98.96-9.51-30.81-40.34-43.23-68.99-30.12-11.87,5.43-12.94,9.13-20.46,15.2-7.04-3.11-12.09-10.59-17.66-13.09ZM1999.21,1544.26c5.24,3.94,11.3,10.55,16.85,13.5,3.57-1.92,29.49-35.05,33.05-7.03,2.42,19.06-9.3,35.23-18.3,42.77-11.41,9.56-34.16,16.72-41.75-1.42-6.65-15.9.57-39.93,10.15-47.82ZM1754.45,1443.86c28.42,2.99,65.28,18.45,84.69,30.9,60.19,38.62,60.22,96.88,1.65,140.18-24.7,18.26-44.41,25.58-76.05,38.05l-10.28-209.13Z"/>
    <path class="cls-2" d="M272.66,78.53c-10.28,19.91-20.23,43.56-29.98,65.77-9.88,22.51-19.09,45.19-28.64,68.07-56.35,134.98-109.18,294.45-145.12,437.52-26.12,104-47.28,217.35-57.72,330.16-10.66,115.3-17.59,257.06-2.42,371.98l131.28-14.01c-.5-34.71-4.41-70.66-5.04-105.82-.66-37.15.12-73.47,1.01-110.5l323.16,6.7c1.56,52.95-4.75,130.14-8.67,185.78-1.34,18.93-5.34,42.88-5.18,61l133.41,11.15c38.61-385.94,3.21-796.85-102.83-1169.64-6.78-23.82-14.18-47.59-21.89-71.18-3.86-11.79-7.49-22.4-11.86-34.61-4.08-11.38-10.25-24.37-13.34-34.68l-156.16,2.3ZM145.68,988.45c-.28-16.05,9.83-85.03,12.92-104.62,5.28-33.41,11.06-67.03,17.74-99.71,37.42-182.89,90.57-344.87,159.82-515.72l9.15-20.25c4.11,8.51,9.24,31.71,11.94,41.92,27.25,102.89,48.58,205.75,65.29,311.79,15.05,95.53,26.21,193.96,31.87,291.18,1.12,19.13,6.78,86.39,3.95,100.95l-312.68-5.53ZM3389.26,936.11c-3.85-22.3-5.31-53.6-7.24-77.19-2.17-26.49-4.31-52.79-6.71-79.23-13.75-151.59-24.38-328.89-30.4-480.16-22.49,1-44.31,5.21-66.19,8.14-22.43,3-44.17,5.34-66.75,8.11-1.62,20.88,11.72,226.61,13.14,253.1,4.43,82.62,11.39,167.09,18.78,249.27,13.79,153.47,28.91,336.87,48.78,487.27l106.59.07c20.95-53.4,42.08-110.31,61.54-166.91,38.53-112.04,80-226.35,120.28-337.47l46.63-125.94c2.8-7.42,14.64-35.86,15.44-40.97,1.84,25.59.11,57.67.06,83.97l-.61,505.48c-.09,27.01-2,56.54-.98,83.03l133.14,1.48c2.56-40.63,1.38-85.17,1.32-126.13-.06-42.64.31-84.64.46-127.29.28-85.66.56-171.35.67-257.03l.84-447.95c.04-20.13,1.38-44.85-.08-64.42-38.02-3.16-67.17-5.31-104.68-10.27-7.78-1.03-27.04-4.79-33.78-4.24-11.56,26.59-21.57,54.38-32.13,81.71l-95.29,248.63c-20.86,55.75-40.77,111.33-61.85,167.03-10.42,27.53-19.97,55.84-30.28,83.55-4.34,11.68-27.71,79.96-30.7,84.37ZM4256.68,222.71l-6.43,769.1-267.05,1.89c-7.2-187.81-9.12-376.66-15.62-564.43l-3.99-141.94c-.37-12.75.46-35.75-2.02-47.21-21.6-1.07-45.23-.12-66.47-2.1-11.98-1.12-55.98-3.52-65.75-1.34-2.66,16.98.11,48.15.55,66.61.54,22.33,1.34,44.9,2,67.27l23.2,809.01c1.03,31.38,1.95,109.27,4.62,135.21l63.07-2.6c20.08-.85,47.86,2.82,66.14.24,2.98-4.17,1.73-16.26,1.66-22.69-.51-46.51-5.09-127.01-3.52-162.81l262.26-.1-1.02,167.41,132.71,3.64c2.93-89,1.82-179.92,2.69-268.82l4.55-539.75c.39-44.88.79-89.72,1.1-134.64.16-24.15,2.4-118.69.54-134.14l-133.22,2.21ZM2816.61,761.13c-2.77-34.65-1.36-74.93-2.14-110.28l-4.91-220.32c-1.16-36.24-.38-75.38-3.12-111.13l-133.96-3.94c-.29,40.79,2.33,82.89,3.08,123.65,2.32,126.13,5.89,250,7.41,376.96,1,84.02,2.72,168.09,3.73,252.13l2.82,189.46c.4,14.54-.44,49.87,2.5,62l131.44-7.44c1.36-28.47-.9-62.72-1.24-92.24-.16-14.65-3.21-130.87.17-139.66l44.03-98.81c5.28,4.32,30.34,35.58,36.16,42.13,5.91,6.67,11.92,14.55,17.89,21.31,6.54,7.4,12.28,13.71,18.01,21.13l63.4,73.7c16.09,16.77,52.08,61.22,64.84,73.46,4.44,4.26,5.64,6.2,9.2,10.41,3.15,3.7,6.3,6.43,9.41,10.12,3.21,3.79,6.07,6.22,9.51,10.06,16.78,18.72,53.25,58.8,67.94,70.03,4.46-3.25,78.82-78.45,94.42-91.08-1.62-4.62-36.52-40.23-42.51-46.12l-135.21-152.47c-16.32-17.68-35.39-42.39-50.8-59.34-7.34-8.07-13.86-16.92-20.7-24.59-7.38-8.28-77.29-91.25-80.62-97.25,3.49-10.86,10.75-25.28,15.62-36.19l48.07-109.83c20.75-49.11,43.22-96.6,63.69-145.59,20.54-49.18,43.06-96.49,63.63-145.66,5.92-14.15,61.28-137.21,63.15-146.76-10.74-3.32-100.67-48.02-119.81-56.74-5.55,7.52-11.69,24.69-15.95,34.21-26.16,58.38-223.63,516.29-229.18,524.68ZM562,445.85l36.57,6.79c3.09.78.54-.06,2.9.89,3.05,1.22,1.47.63,2.6,1.37l33.75,927.38,131.59-14.4c3.57-2.96,1.09-29.4.95-34.03-.35-11.3-.69-22.96-1.09-34.33-.63-18.09-3.67-54.98-1.67-70.99l33.57-20.25c11.33-6.98,21.92-14.41,32.11-21.72,31.29-22.41,61.95-47.04,89.17-73.63,25.88-25.3,53.79-59.74,73.91-88.9,101.06-146.58,112.8-334.51-1.92-487.49-31.55-42.08-67.51-74.17-110.54-106.06-37.97-28.15-90.88-55.27-141.73-74.92-26.59-10.26-54.16-18.35-82.83-26.09-23.91-6.45-65.34-15.96-91.16-17.55l-6.18,133.92ZM744.55,503.3c13.15,7.04,25.4,13.01,38.1,21.09,30.01,19.09,41.75,28.45,67.37,51.36,10.42,9.32,18.86,19.53,28.32,30.44,34.09,39.36,64.8,100.99,64.24,173.17-.66,84.9-41.54,154.14-87.99,209.37-9.42,11.21-18.07,20.95-28.15,30.63-12.04,11.55-53.61,48.55-64.29,53.1l-17.6-569.14ZM1557.16,1292.48l409.07-89.1c-2.29-37.44-18.29-101.82-19.68-130.8-21.76.68-245.94,54.94-256.52,54.75-1.78-21.81-.37-84.05-.43-112.98l.8-37.15c1.86-5.78,162.87-14.8,191.81-24.28l-12.41-128.45c-6.14-2.11-158.14,15.8-180.43,17.19l-1.1-363.4,244.28,33.63,13.48-133.34-389.98-53.18c-3.25,28.14-1.56,199.34-1.48,241.02l2.6,726.09ZM964.17,462.59l186.68,7.07c1.82,72.79.89,146.08,1.39,219.13l2.72,438.17c.16,18.41-.81,36.34-.45,55.08,1.04,53.44.93,110.62,3.71,162.85l132.97-1.61c.6-34.93-.84-71.73-1.39-107.01-1.67-106.76-1.66-219.18-2-325.95-.46-145.1-3.33-290.76-2.51-435.74l218.98,7.65c.05-16.55,3.17-127.77-.47-132.89-2.49-2.42,2.1-.01-2.28-1.19l-13.06-.77c-5.73-.15-11.45-.3-17.19-.53-10.97-.45-21.98-.72-33.03-1.16-43.7-1.71-459.33-17.61-470.7-15.41l-3.37,132.32ZM1562,177.19l-1.77,120.77,142.06,4.08c.18-18.72,3.45-122.33,1.74-133.14l-142.01-4.64-.02,12.93ZM1756.17,300.54c22.81-.13,45.54-1.06,67.66-.69,21.72.36,44.34,2.08,65.92,2.01l1.49-140.34-132.94-3.46-2.13,142.48ZM2462.28,223.81c-7.03,27.71-12.39,59.86-18.27,88.88-39.2,193.4-82.29,386.19-120.97,580.42-2.04,10.28-6.15,37.98-9.34,45.41-8.18-24.52-19.14-50.46-28.28-74.89-28.43-75.87-55.22-152.11-82.13-228.76-17.92-51.05-34.76-102.07-53.23-153.63-18.58-51.86-36.74-102.2-54.76-153.3-40.02-1.32-83.06,4.31-123.12,5.05l15.62,235.84c4.03,79.85,9.72,159.82,13.21,239.87l17.52,424.73c.86,19.04,1.38,41.07,3.67,59.71l133.42-4.4-18.21-437.16c7.3,15.43,13.65,36.27,20.05,53.11,6.82,17.96,13.41,35.45,20.1,53.33,13.43,35.87,27.26,71.07,40.93,107.16l59.41,160.91c6.27,17.13,12.68,38.1,20.09,54.56l93.23-2.46c12.89-85.1,31-187.74,46.86-272.62,8.4-45.01,17.04-89.35,26.22-134.03,4.62-22.47,8.85-43.76,13.54-66.09,4.43-21.06,10.31-44.96,13.63-66.11l29.16,569.51c17.16,1.39,117.64-3.36,133.98-5.74-.97-44.23-4.61-90.18-6.76-134.5-2.2-45.3-4.23-90.53-6.72-135.8-4.94-89.98-7.91-181.03-13.65-270.91-5.75-90.08-8.07-180.64-13.62-270.55l-10.45-202.78c-1.09-21.67-4.21-47.66-3.68-68.74l-137.44,3.99Z"/>
    <polygon class="cls-1" points="5842.88 340.2 5613.64 577.62 5930.2 670.41 6246.81 405.22 6246.95 405.45 6366.2 437.35 6289.96 389.68 6310.79 301.26 6244.54 401.54 6244.99 402.27 5842.88 340.2"/>
    <polygon class="cls-1" points="6067.61 92.42 5951.54 240.01 6136.07 274.29 6299.99 105.95 6300.08 106.07 6369.42 117.26 6323.51 94.67 6330.21 43.42 6298.49 104 6298.79 104.38 6067.61 92.42"/>
  </g>
</svg>