<svg xmlns="http://www.w3.org/2000/svg" width="320" height="64" viewBox="0 0 320 64" fill="none">
  <rect width="320" height="64" rx="16" fill="#0f2033"/>
  <g transform="translate(12 18) scale(1.35)">
    <path fill="#e8edf4" d="M63.5211 19.8211C56.6754 19.9176 49.9426 19.7863 43.2152 19.5711C34.1039 19.2795 24.9941 18.8508 16.006 17.146C13.2129 16.6162 10.4576 15.9294 7.88371 14.6632C7.10849 14.2819 6.36818 13.8477 5.71487 13.2773C3.3768 11.2362 3.42598 8.37223 5.88426 6.45974C8.34294 4.54699 11.2874 3.7636 14.2476 3.10678C19.5824 1.92306 25.0054 1.39824 30.4515 1.02667C42.1371 0.229413 53.8365 0.0894509 65.5402 0.244453C72.8649 0.341457 80.1923 0.516855 87.4986 1.08967C94.0532 1.60355 100.599 2.23822 106.921 4.21629C108.533 4.72069 110.078 5.38589 111.454 6.39013C114.3 8.46749 114.364 11.5735 111.555 13.6874C109.134 15.5096 106.26 16.2589 103.373 16.9057C98.1844 18.0681 92.9077 18.5708 87.6147 18.9727C79.631 19.5789 71.6322 19.6838 63.5211 19.8211Z"/>
    <path fill="#e8cf4a" d="M55.8394 11.4368C55.2671 9.97296 55.4422 8.68838 56.512 7.64567C57.4249 6.75586 58.5433 6.4378 59.8098 6.8635C61.2334 7.34197 62.0463 8.45149 62.0692 9.979C62.0913 11.4595 61.2705 12.6299 59.8566 13.1337C58.5397 13.6029 57.1741 13.2035 56.2505 12.0702C56.1098 11.8976 55.9989 11.7007 55.8394 11.4368Z"/>
  </g>
  <text x="128" y="41" font-family="system-ui,Segoe UI,Roboto,sans-serif" font-size="20" font-weight="650" fill="#f0f4fa">Космос Чат</text>
</svg>
